<?xml version="1.0" encoding="UTF-8"?>
<svg id="Layer_1" data-name="Layer 1" xmlns="http://www.w3.org/2000/svg" viewBox="0 0 477.75 45.51">
  <defs>
    <style>
      .cls-1 {
        fill: none;
        stroke: #fff;
        stroke-miterlimit: 10;
      }

      .cls-2 {
        fill: #fff;
        stroke-width: 0px;
      }
    </style>
  </defs>
  <path class="cls-2" d="m22.59.13c6.32,0,10.89,2.2,15.15,5.86.5.5.56,1.26.06,1.76l-1.69,1.7c-.5.63-1,.57-1.63-.06-3.25-2.84-7.7-4.73-11.95-4.73C12.64,4.67,5.07,13.05,5.07,22.82s7.57,18.09,17.46,18.09c5.45,0,8.64-2.21,11.95-4.73.63-.5,1.13-.44,1.5-.19l1.88,1.7c.5.38.38,1.26-.06,1.7-4.26,4.16-9.64,6.11-15.21,6.11C10.08,45.51,0,35.49,0,22.89S10.08.13,22.59.13Z"/>
  <path class="cls-2" d="m68.89,0c12.52,0,22.53,10.15,22.53,22.75s-10.01,22.63-22.53,22.63-22.47-10.02-22.47-22.63S56.38,0,68.89,0Zm0,40.97c9.95,0,18.15-8.19,18.15-18.22s-8.2-18.34-18.15-18.34-18.09,8.32-18.09,18.34,8.14,18.22,18.09,18.22Z"/>
  <path class="cls-2" d="m104.16,1.96c0-.63.5-1.2,1.19-1.2h24.66c.69,0,1.19.57,1.19,1.2v1.83c0,.63-.5,1.2-1.19,1.2h-21.03v17.27h17.96c.63,0,1.19.57,1.19,1.2v1.83c0,.63-.56,1.2-1.19,1.2h-17.96v17.21c0,.63-.56,1.2-1.19,1.2h-2.44c-.69,0-1.19-.57-1.19-1.2V1.96Z"/>
  <path class="cls-2" d="m142.53,1.96c0-.63.5-1.2,1.19-1.2h24.66c.69,0,1.19.57,1.19,1.2v1.83c0,.63-.5,1.2-1.19,1.2h-21.03v17.27h17.96c.63,0,1.19.57,1.19,1.2v1.83c0,.63-.56,1.2-1.19,1.2h-17.96v17.21c0,.63-.56,1.2-1.19,1.2h-2.44c-.69,0-1.19-.57-1.19-1.2V1.96Z"/>
  <path class="cls-2" d="m180.9,1.96c0-.63.5-1.2,1.19-1.2h24.66c.69,0,1.19.57,1.19,1.2v1.83c0,.63-.5,1.2-1.19,1.2h-21.03v15.38h17.96c.63,0,1.19.57,1.19,1.2v1.83c0,.69-.56,1.2-1.19,1.2h-17.96v16.07h21.03c.69,0,1.19.57,1.19,1.2v1.83c0,.63-.5,1.2-1.19,1.2h-24.66c-.69,0-1.19-.57-1.19-1.2V1.96Z"/>
  <path class="cls-2" d="m220.71,1.96c0-.63.5-1.2,1.19-1.2h24.66c.69,0,1.19.57,1.19,1.2v1.83c0,.63-.5,1.2-1.19,1.2h-21.03v15.38h17.96c.63,0,1.19.57,1.19,1.2v1.83c0,.69-.56,1.2-1.19,1.2h-17.96v16.07h21.03c.69,0,1.19.57,1.19,1.2v1.83c0,.63-.5,1.2-1.19,1.2h-24.66c-.69,0-1.19-.57-1.19-1.2V1.96Z"/>
  <path class="cls-2" d="m277.16,1.96c0-.63.5-1.2,1.19-1.2h13.71c7.64,0,12.83,4.98,12.83,11.6,0,4.85-3.19,8.38-6.13,10.08,3.32,1.39,7.51,4.48,7.51,10.27,0,7.06-5.57,12.16-13.64,12.16h-14.27c-.69,0-1.19-.57-1.19-1.2V1.96Zm15.96,38.7c4.57,0,7.89-3.47,7.89-8s-4.07-7.75-8.95-7.75h-10.33v15.76h11.39Zm-1.06-20.11c4.82,0,7.51-3.47,7.51-7.88s-2.69-7.56-7.51-7.56h-10.2v15.44h10.2Z"/>
  <path class="cls-2" d="m319.04,1.96c0-.63.5-1.2,1.19-1.2h16.21c7.51,0,13.64,5.92,13.64,13.43,0,5.8-3.82,10.65-9.26,12.86l8.57,16.01c.44.82,0,1.83-1.06,1.83h-3.19c-.56,0-.88-.32-1-.57l-8.32-16.7h-11.95v16.07c0,.63-.56,1.2-1.19,1.2h-2.44c-.69,0-1.19-.57-1.19-1.2V1.96Zm17.09,21.49c4.82,0,9.01-4.03,9.01-9.2,0-4.79-4.19-8.89-9.01-8.89h-12.14v18.09h12.14Z"/>
  <path class="cls-2" d="m363.17,1.96c0-.63.5-1.2,1.19-1.2h24.66c.69,0,1.19.57,1.19,1.2v1.83c0,.63-.5,1.2-1.19,1.2h-21.03v15.38h17.96c.63,0,1.19.57,1.19,1.2v1.83c0,.69-.56,1.2-1.19,1.2h-17.96v16.07h21.03c.69,0,1.19.57,1.19,1.2v1.83c0,.63-.5,1.2-1.19,1.2h-24.66c-.69,0-1.19-.57-1.19-1.2V1.96Z"/>
  <path class="cls-2" d="m396.97,43.24L416,.83c.19-.38.5-.69,1.06-.69h.63c.56,0,.88.31,1.06.69l18.9,42.42c.38.82-.12,1.64-1.06,1.64h-2.5c-.56,0-.94-.38-1.06-.69l-4.63-10.4h-22.22l-4.57,10.4c-.12.32-.5.69-1.06.69h-2.5c-.94,0-1.44-.82-1.06-1.64Zm29.73-13.36c-3.07-6.87-6.07-13.8-9.14-20.67h-.5l-9.14,20.67h18.78Z"/>
  <path class="cls-2" d="m447.24,2.27c0-.82.63-1.51,1.5-1.51h1.81c.81,0,1.5.69,1.5,1.51v17.84l19.53-18.72c.25-.32.81-.63,1.19-.63h3.07c1.13,0,1.75,1.26.75,2.2l-19.78,18.59,20.72,21.37c.44.44.31,1.95-1.06,1.95h-3.19c-.44,0-1-.25-1.13-.44l-20.09-21.12v20.04c0,.82-.69,1.51-1.5,1.51h-1.81c-.88,0-1.5-.69-1.5-1.51V2.27Z"/>
  <path class="cls-2" d="m96.24,25.18h-5.85v-4.98h5.85c.3,0,.55.25.55.55v3.87c0,.3-.25.55-.55.55Z"/>
  <ellipse class="cls-1" cx="68.92" cy="22.69" rx="14.08" ry="14.18"/>
  <ellipse class="cls-1" cx="68.92" cy="22.69" rx="7.43" ry="7.48"/>
</svg>